<mxfile host="app.diagrams.net" modified="2024-03-10T21:09:14.637Z" agent="Mozilla/5.0 (Macintosh; Intel Mac OS X 10_15_7) AppleWebKit/537.36 (KHTML, like Gecko) Chrome/122.0.0.0 Safari/537.36" etag="acrio92kznN16A-rz1Xt" version="24.0.1" type="device">
  <diagram name="Page-1" id="dmwkIrZt68OVC0G9n3pL">
    <mxGraphModel dx="437" dy="336" grid="1" gridSize="10" guides="1" tooltips="1" connect="1" arrows="1" fold="1" page="1" pageScale="1" pageWidth="1100" pageHeight="850" math="0" shadow="0">
      <root>
        <mxCell id="0" />
        <mxCell id="1" parent="0" />
        <mxCell id="qrEQmO61OaiGMNLsWpL_-1" value="10" style="ellipse;whiteSpace=wrap;html=1;" vertex="1" parent="1">
          <mxGeometry x="240" y="200" width="20" height="20" as="geometry" />
        </mxCell>
        <mxCell id="qrEQmO61OaiGMNLsWpL_-3" value="23" style="ellipse;whiteSpace=wrap;html=1;" vertex="1" parent="1">
          <mxGeometry x="280" y="200" width="20" height="20" as="geometry" />
        </mxCell>
        <mxCell id="qrEQmO61OaiGMNLsWpL_-4" value="27&lt;span style=&quot;white-space: pre;&quot;&gt;&#x9;&lt;/span&gt;&lt;span style=&quot;white-space: pre;&quot;&gt;&#x9;&lt;/span&gt;&lt;span style=&quot;white-space: pre;&quot;&gt;&#x9;&lt;/span&gt;&lt;span style=&quot;white-space: pre;&quot;&gt;&#x9;&lt;/span&gt;" style="ellipse;whiteSpace=wrap;html=1;" vertex="1" parent="1">
          <mxGeometry x="320" y="200" width="20" height="20" as="geometry" />
        </mxCell>
        <mxCell id="qrEQmO61OaiGMNLsWpL_-6" value="90" style="ellipse;whiteSpace=wrap;html=1;" vertex="1" parent="1">
          <mxGeometry x="520" y="200" width="20" height="20" as="geometry" />
        </mxCell>
        <mxCell id="qrEQmO61OaiGMNLsWpL_-7" value="77" style="ellipse;whiteSpace=wrap;html=1;" vertex="1" parent="1">
          <mxGeometry x="480" y="200" width="20" height="20" as="geometry" />
        </mxCell>
        <mxCell id="qrEQmO61OaiGMNLsWpL_-8" value="73" style="ellipse;whiteSpace=wrap;html=1;" vertex="1" parent="1">
          <mxGeometry x="440" y="200" width="20" height="20" as="geometry" />
        </mxCell>
        <mxCell id="qrEQmO61OaiGMNLsWpL_-9" value="65" style="ellipse;whiteSpace=wrap;html=1;" vertex="1" parent="1">
          <mxGeometry x="400" y="200" width="20" height="20" as="geometry" />
        </mxCell>
        <mxCell id="qrEQmO61OaiGMNLsWpL_-10" value="33" style="ellipse;whiteSpace=wrap;html=1;direction=west;" vertex="1" parent="1">
          <mxGeometry x="360" y="200" width="20" height="20" as="geometry" />
        </mxCell>
        <mxCell id="qrEQmO61OaiGMNLsWpL_-35" style="edgeStyle=none;rounded=0;orthogonalLoop=1;jettySize=auto;html=1;exitX=0.5;exitY=1;exitDx=0;exitDy=0;endArrow=none;endFill=0;" edge="1" parent="1" source="qrEQmO61OaiGMNLsWpL_-14" target="qrEQmO61OaiGMNLsWpL_-1">
          <mxGeometry relative="1" as="geometry" />
        </mxCell>
        <mxCell id="qrEQmO61OaiGMNLsWpL_-38" style="edgeStyle=none;rounded=0;orthogonalLoop=1;jettySize=auto;html=1;exitX=0.5;exitY=1;exitDx=0;exitDy=0;entryX=0;entryY=0;entryDx=0;entryDy=0;endArrow=none;endFill=0;" edge="1" parent="1" source="qrEQmO61OaiGMNLsWpL_-14" target="qrEQmO61OaiGMNLsWpL_-3">
          <mxGeometry relative="1" as="geometry" />
        </mxCell>
        <mxCell id="qrEQmO61OaiGMNLsWpL_-14" value="20" style="ellipse;whiteSpace=wrap;html=1;" vertex="1" parent="1">
          <mxGeometry x="260" y="160" width="20" height="20" as="geometry" />
        </mxCell>
        <mxCell id="qrEQmO61OaiGMNLsWpL_-36" style="edgeStyle=none;rounded=0;orthogonalLoop=1;jettySize=auto;html=1;exitX=0.5;exitY=1;exitDx=0;exitDy=0;endArrow=none;endFill=0;" edge="1" parent="1" source="qrEQmO61OaiGMNLsWpL_-18" target="qrEQmO61OaiGMNLsWpL_-4">
          <mxGeometry relative="1" as="geometry" />
        </mxCell>
        <mxCell id="qrEQmO61OaiGMNLsWpL_-37" style="edgeStyle=none;rounded=0;orthogonalLoop=1;jettySize=auto;html=1;exitX=0.5;exitY=1;exitDx=0;exitDy=0;endArrow=none;endFill=0;" edge="1" parent="1" source="qrEQmO61OaiGMNLsWpL_-18" target="qrEQmO61OaiGMNLsWpL_-10">
          <mxGeometry relative="1" as="geometry" />
        </mxCell>
        <mxCell id="qrEQmO61OaiGMNLsWpL_-18" value="30" style="ellipse;whiteSpace=wrap;html=1;" vertex="1" parent="1">
          <mxGeometry x="340" y="160" width="20" height="20" as="geometry" />
        </mxCell>
        <mxCell id="qrEQmO61OaiGMNLsWpL_-41" style="edgeStyle=none;rounded=0;orthogonalLoop=1;jettySize=auto;html=1;exitX=0.5;exitY=1;exitDx=0;exitDy=0;endArrow=none;endFill=0;" edge="1" parent="1" source="qrEQmO61OaiGMNLsWpL_-20" target="qrEQmO61OaiGMNLsWpL_-9">
          <mxGeometry relative="1" as="geometry" />
        </mxCell>
        <mxCell id="qrEQmO61OaiGMNLsWpL_-42" style="edgeStyle=none;rounded=0;orthogonalLoop=1;jettySize=auto;html=1;exitX=0.5;exitY=1;exitDx=0;exitDy=0;entryX=0;entryY=0;entryDx=0;entryDy=0;endArrow=none;endFill=0;" edge="1" parent="1" source="qrEQmO61OaiGMNLsWpL_-20" target="qrEQmO61OaiGMNLsWpL_-8">
          <mxGeometry relative="1" as="geometry" />
        </mxCell>
        <mxCell id="qrEQmO61OaiGMNLsWpL_-20" value="70" style="ellipse;whiteSpace=wrap;html=1;" vertex="1" parent="1">
          <mxGeometry x="420" y="160" width="20" height="20" as="geometry" />
        </mxCell>
        <mxCell id="qrEQmO61OaiGMNLsWpL_-43" style="edgeStyle=none;rounded=0;orthogonalLoop=1;jettySize=auto;html=1;exitX=0.5;exitY=1;exitDx=0;exitDy=0;endArrow=none;endFill=0;" edge="1" parent="1" source="qrEQmO61OaiGMNLsWpL_-22" target="qrEQmO61OaiGMNLsWpL_-7">
          <mxGeometry relative="1" as="geometry" />
        </mxCell>
        <mxCell id="qrEQmO61OaiGMNLsWpL_-44" style="edgeStyle=none;rounded=0;orthogonalLoop=1;jettySize=auto;html=1;exitX=0.5;exitY=1;exitDx=0;exitDy=0;endArrow=none;endFill=0;" edge="1" parent="1" source="qrEQmO61OaiGMNLsWpL_-22" target="qrEQmO61OaiGMNLsWpL_-6">
          <mxGeometry relative="1" as="geometry" />
        </mxCell>
        <mxCell id="qrEQmO61OaiGMNLsWpL_-22" value="80" style="ellipse;whiteSpace=wrap;html=1;" vertex="1" parent="1">
          <mxGeometry x="500" y="160" width="20" height="20" as="geometry" />
        </mxCell>
        <mxCell id="qrEQmO61OaiGMNLsWpL_-33" style="edgeStyle=none;rounded=0;orthogonalLoop=1;jettySize=auto;html=1;exitX=0.5;exitY=1;exitDx=0;exitDy=0;entryX=1;entryY=0;entryDx=0;entryDy=0;endArrow=none;endFill=0;" edge="1" parent="1" source="qrEQmO61OaiGMNLsWpL_-23" target="qrEQmO61OaiGMNLsWpL_-14">
          <mxGeometry relative="1" as="geometry" />
        </mxCell>
        <mxCell id="qrEQmO61OaiGMNLsWpL_-34" style="edgeStyle=none;rounded=0;orthogonalLoop=1;jettySize=auto;html=1;exitX=0.5;exitY=1;exitDx=0;exitDy=0;endArrow=none;endFill=0;" edge="1" parent="1" source="qrEQmO61OaiGMNLsWpL_-23" target="qrEQmO61OaiGMNLsWpL_-18">
          <mxGeometry relative="1" as="geometry" />
        </mxCell>
        <mxCell id="qrEQmO61OaiGMNLsWpL_-23" value="25" style="ellipse;whiteSpace=wrap;html=1;" vertex="1" parent="1">
          <mxGeometry x="300" y="120" width="20" height="20" as="geometry" />
        </mxCell>
        <mxCell id="qrEQmO61OaiGMNLsWpL_-31" style="edgeStyle=none;rounded=0;orthogonalLoop=1;jettySize=auto;html=1;exitX=0.5;exitY=1;exitDx=0;exitDy=0;entryX=1;entryY=0;entryDx=0;entryDy=0;endArrow=none;endFill=0;" edge="1" parent="1" source="qrEQmO61OaiGMNLsWpL_-24" target="qrEQmO61OaiGMNLsWpL_-20">
          <mxGeometry relative="1" as="geometry" />
        </mxCell>
        <mxCell id="qrEQmO61OaiGMNLsWpL_-32" style="edgeStyle=none;rounded=0;orthogonalLoop=1;jettySize=auto;html=1;exitX=0.5;exitY=1;exitDx=0;exitDy=0;entryX=0;entryY=0;entryDx=0;entryDy=0;endArrow=none;endFill=0;" edge="1" parent="1" source="qrEQmO61OaiGMNLsWpL_-24" target="qrEQmO61OaiGMNLsWpL_-22">
          <mxGeometry relative="1" as="geometry" />
        </mxCell>
        <mxCell id="qrEQmO61OaiGMNLsWpL_-24" value="75" style="ellipse;whiteSpace=wrap;html=1;" vertex="1" parent="1">
          <mxGeometry x="460" y="120" width="20" height="20" as="geometry" />
        </mxCell>
        <mxCell id="qrEQmO61OaiGMNLsWpL_-28" style="edgeStyle=none;rounded=0;orthogonalLoop=1;jettySize=auto;html=1;entryX=1;entryY=0;entryDx=0;entryDy=0;endArrow=none;endFill=0;" edge="1" parent="1" source="qrEQmO61OaiGMNLsWpL_-25" target="qrEQmO61OaiGMNLsWpL_-23">
          <mxGeometry relative="1" as="geometry">
            <mxPoint x="400" y="90" as="sourcePoint" />
          </mxGeometry>
        </mxCell>
        <mxCell id="qrEQmO61OaiGMNLsWpL_-30" style="edgeStyle=none;rounded=0;orthogonalLoop=1;jettySize=auto;html=1;entryX=0;entryY=0;entryDx=0;entryDy=0;endArrow=none;endFill=0;" edge="1" parent="1" target="qrEQmO61OaiGMNLsWpL_-24">
          <mxGeometry relative="1" as="geometry">
            <mxPoint x="400" y="90" as="sourcePoint" />
          </mxGeometry>
        </mxCell>
        <mxCell id="qrEQmO61OaiGMNLsWpL_-45" value="" style="edgeStyle=none;rounded=0;orthogonalLoop=1;jettySize=auto;html=1;entryX=1;entryY=0;entryDx=0;entryDy=0;endArrow=none;endFill=0;" edge="1" parent="1" target="qrEQmO61OaiGMNLsWpL_-25">
          <mxGeometry relative="1" as="geometry">
            <mxPoint x="400" y="90" as="sourcePoint" />
            <mxPoint x="317" y="123" as="targetPoint" />
          </mxGeometry>
        </mxCell>
        <mxCell id="qrEQmO61OaiGMNLsWpL_-25" value="50" style="ellipse;whiteSpace=wrap;html=1;" vertex="1" parent="1">
          <mxGeometry x="390" y="80" width="20" height="20" as="geometry" />
        </mxCell>
      </root>
    </mxGraphModel>
  </diagram>
</mxfile>
